<svg width="32" height="32" viewBox="0 0 32 32" fill="none" xmlns="http://www.w3.org/2000/svg">
<rect width="32" height="32" fill="white"/>
<path d="M4.00109 21V11.48H5.28909V19.95H10.0771V21H4.00109ZM10.3563 21V11.48H12.1343L15.0603 18.466L15.3403 19.32L15.6343 18.466L18.5463 11.48H20.2683V21H18.9803V13.034L18.3083 14.91L15.7603 21H14.8503L12.3023 14.896L11.6443 13.076V21H10.3563ZM21.1959 21V11.48H24.5419C26.5019 11.48 27.7619 12.46 27.7619 14.014C27.7619 14.924 27.2719 15.652 26.3619 16.002C27.6079 16.324 28.2799 17.192 28.2799 18.326C28.2799 20.02 27.0479 21 25.0179 21H21.1959ZM24.5139 12.516H22.4839V15.61H24.4859C25.7179 15.61 26.4319 14.994 26.4319 14.084C26.4319 13.118 25.7039 12.516 24.5139 12.516ZM24.7939 16.646H22.4839V19.964H24.9899C26.2079 19.964 26.9639 19.306 26.9639 18.298C26.9639 17.29 26.1379 16.646 24.7939 16.646Z" fill="black"/>
</svg>
